<svg
width="100%"
height="100%"
viewBox="-8.304827873287284 -18.524414907012027 20.0 36.20000076293945"
xmlns="http://www.w3.org/2000/svg"
xmlns:trimesh="https://github.com/mikedh/trimesh"
trimesh:class="Path2D"
trimesh:metadata="base64,eyJ0b18zRCI6W1swLjAsMS4wLDAuMCwwLjQyNDQxNDUyNTU0MjI5OTldLFstMC4wLC0wLjAsLTEuMCwtMC4wXSxbLTEuMCwtMC4wLC0wLjAsMS42OTUxNzIxMjY3MTI3MTddLFswLjAsMC4wLDAuMCwxLjBdXX0="
>
<path d="M-8.1708537979699,17.1755858559274L-8.2445213242150,17.0176039833688L-8.2896358414269,16.8492346901559L-8.3048278732873,16.6755858559274L-8.3048278732873,6.7880848545694L-8.3048278732873,5.3755847115182L-8.3048278732873,5.3615220083546L-8.3048278732873,5.3269244331979L-8.3048278732873,5.2214054892928L-8.3048278732873,5.1818934578561L-8.3048278732873,5.0071109115802L-8.3048278732873,4.9433127541208L-8.3048278732873,4.7017998835797L-8.3048278732873,4.6158248085641L-8.3048278732873,4.3115651641949L-8.3048278732873,4.2058077950143L-8.3048278732873,3.8442021052711L-8.3048278732873,3.7212382454538L-8.3048278732873,3.3090496194744L-8.3048278732873,3.1715499062204L-8.3048278732873,2.7167840003487L-8.3048278732873,2.5674410957956L-8.3048278732873,2.0791858187987L-8.3048278732873,1.9206706185007L-8.3048278732873,1.4088797385504L-8.3048278732873,1.2438250679636L-8.3048278732873,0.7190686558578L-8.3048278732873,0.5500823158884L-8.3048278732873,0.3801076816370L-8.3048278732873,-0.1470574241019L-8.3048278732873,-0.3144028301948L-8.3048278732873,-0.8340233664847L-8.3048278732873,-0.9961352011100L-8.3048278732873,-1.4974469046927L-8.3048278732873,-1.6517077821460L-8.3048278732873,-2.1244152884818L-8.3048278732873,-2.2681725436015L-8.3048278732873,-2.7027224402762L-8.3048278732873,-2.8332908099638L-8.3048278732873,-3.2211140494681L-8.3048278732873,-3.3358044500700L-8.3048278732873,-3.6694992881155L-8.3048278732873,-3.7656786924566L-8.3048278732873,-4.0391529898978L-8.3048278732873,-4.1143233050322L-8.3048278732873,-4.3228777747488L-8.3048278732873,-4.3747749762052L-8.3048278732873,-4.5151528220511L-8.3048278732873,-4.5418479638443L-8.3048278732873,-4.6122349601126L-8.3048278732873,-5.9524104863722L-8.3048278732873,-15.5244149070120L-8.2592517777062,-16.0453595023489L-8.1239063187219,-16.5504750113821L-7.9029037399865,-17.0244149070120L-7.6029617233849,-17.4527767997122L-7.2331897659875,-17.8225487571097L-6.8048278732873,-18.1224907737112L-6.3308879776574,-18.3434933524466L-5.8257724686242,-18.4788388114310L-5.3048278732873,-18.5244149070120L3.1951721267127,-18.5244149070120L11.6951721267127,-18.5244149070120L11.6951721267127,-3.7369152407980L11.6951721267127,-1.6244152884818L11.6951721267127,-1.6156846230965L11.6951721267127,-1.5940312247610L11.6951721267127,-1.5289971255025L11.6951721267127,-1.5038002829886L11.6951721267127,-1.3972776093237L11.6951721267127,-1.3564652304984L11.6951721267127,-1.2114910479635L11.6951721267127,-1.1565045218802L11.6951721267127,-0.9773549265331L11.6951721267127,-0.9099892478323L11.6951721267127,-0.7020706802470L11.6951721267127,-0.6244152884818L11.6951721267127,-0.3940836102479L11.6951721267127,-0.3084553580618L11.6951721267127,-0.0628203989638L11.6951721267127,0.0282889504098L11.6951721267127,0.2816069209243L11.6951721267127,0.3755847115182L11.6951721267127,0.4695630182383L11.6951721267127,0.7228823799753L11.6951721267127,0.8139912132977L11.6951721267127,1.0596247810983L11.6951721267127,1.1452530332844L11.6951721267127,1.3755847115182L11.6951721267127,1.4532406219439L11.6951721267127,1.6611605782175L11.6951721267127,1.7285257356936L11.6951721267127,1.9076739449167L11.6951721267127,1.9626609954955L11.6951721267127,2.1076365608835L11.6951721267127,2.1484484113659L11.6951721267127,2.2549697060251L11.6951721267127,2.2801665485390L11.6951721267127,2.3452006477975L11.6951721267127,2.3668540461330L11.6951721267127,2.3755847115182L11.6951721267127,4.1380847592020L11.6951721267127,16.4755850929880L10.8951719359779,16.4755850929880L10.0951717452430,16.4755850929880L10.0951717452430,4.1380847592020L10.0951717452430,2.3755847115182L10.0951717452430,2.3668540461330L10.0951717452430,2.3452006477975L10.0951717452430,2.2801665485390L10.0951717452430,2.2549697060251L10.0951717452430,2.1484484113659L10.0951717452430,2.1076365608835L10.0951717452430,1.9626609954955L10.0951717452430,1.9076739449167L10.0951717452430,1.7285257356936L10.0951717452430,1.6611605782175L10.0951717452430,1.4532406219439L10.0951717452430,1.3755847115182L10.0951717452430,1.1452530332844L10.0951717452430,1.0596247810983L10.0951717452430,0.8139912132977L10.0951717452430,0.7228823799753L10.0951717452430,0.4695630182383L10.0951717452430,0.3755847115182L10.0951717452430,0.2816069209243L10.0951717452430,0.0282889504098L10.0951717452430,-0.0628203989638L10.0951717452430,-0.3084553580618L10.0951717452430,-0.3940836102479L10.0951717452430,-0.6244152884818L10.0951717452430,-0.7020706802470L10.0951717452430,-0.9099892478323L10.0951717452430,-0.9773549265331L10.0951717452430,-1.1565045218802L10.0951717452430,-1.2114910479635L10.0951717452430,-1.3564652304984L10.0951717452430,-1.3972776093237L10.0951717452430,-1.5038002829886L10.0951717452430,-1.5289971255025L10.0951717452430,-1.5940312247610L10.0951717452430,-1.6156846230965L10.0951717452430,-1.6244152884818L10.0951717452430,-3.1619151931143L10.0951717452430,-13.9244145255423L10.0495956496619,-14.4453591208792L9.9142501906776,-14.9504755835867L9.6932485656165,-15.4244145255423L9.3933055953406,-15.8527783255911L9.0235350684547,-16.2225483756400L8.5951722220801,-16.5224903922415L8.1212328032874,-16.7434929709769L7.6161168174171,-16.8788384299612L7.0951722220801,-16.9244145255423L1.4951720790290,-16.9244145255423L-4.1048280640221,-16.9244145255423L-4.6257717056847,-16.8788384299612L-5.1308891220666,-16.7434929709769L-5.6048271103478,-16.5224903922415L-6.0331909103967,-16.2225483756400L-6.4029609604455,-15.8527783255911L-6.7029048843957,-15.4244145255423L-6.9239055557824,-14.9504755835867L-7.0592510147668,-14.4453591208792L-7.1048271103478,-13.9244145255423L-7.1048271103478,-5.7559070046036L-7.1048271103478,-4.6122349601126L-7.1048271103478,-4.5418479638443L-7.1048271103478,-4.5151528220511L-7.1048271103478,-4.3747749762052L-7.1048271103478,-4.3228777747488L-7.1048271103478,-4.1143233050322L-7.1048271103478,-4.0391529898978L-7.1048271103478,-3.7656786924566L-7.1048271103478,-3.6694992881155L-7.1048271103478,-3.3358044500700L-7.1048271103478,-3.2211140494681L-7.1048271103478,-2.8332908099638L-7.1048271103478,-2.7027224402762L-7.1048271103478,-2.2681725436015L-7.1048271103478,-2.1244152884818L-7.1048271103478,-1.6517077821460L-7.1048271103478,-1.4974469046927L-7.1048271103478,-0.9961352011100L-7.1048271103478,-0.8340233664847L-7.1048271103478,-0.3144028301948L-7.1048271103478,-0.1470574241019L-7.1048271103478,0.3801076816370L-7.1048271103478,0.5500823158884L-7.1048271103478,0.7190686558578L-7.1048271103478,1.2438250679636L-7.1048271103478,1.4088797385504L-7.1048271103478,1.9206706185007L-7.1048271103478,2.0791858187987L-7.1048271103478,2.5674410957956L-7.1048271103478,2.7167840003487L-7.1048271103478,3.1715499062204L-7.1048271103478,3.3090496194744L-7.1048271103478,3.7212382454538L-7.1048271103478,3.8442021052711L-7.1048271103478,4.2058077950143L-7.1048271103478,4.3115651641949L-7.1048271103478,4.6158248085641L-7.1048271103478,4.7017998835797L-7.1048271103478,4.9433127541208L-7.1048271103478,5.0071109115802L-7.1048271103478,5.1818934578561L-7.1048271103478,5.2214054892928L-7.1048271103478,5.3269244331979L-7.1048271103478,5.3615220083546L-7.1048271103478,5.3755847115182L-7.1048271103478,6.6380847592020L-7.1048271103478,15.4755850929880L-7.0896350784875,15.6492339272165L-7.0445205612756,15.8176070351266L-6.9708530350304,15.9755850929880L-6.8708717270470,16.1183730263376L-6.7476150436974,16.2416297096872L-6.6048271103478,16.3416091103220L-6.4468471451379,16.4152785439157L-6.2784759445763,16.4603911537790L-6.1048271103478,16.4755850929880L-0.5048274441338,16.4755850929880L5.0951722220801,16.4755850929880L5.0951722220801,17.0755854744577L5.0951722220801,17.6755858559274L-1.1048278256036,17.6755858559274L-7.3048278732873,17.6755858559274L-7.4784767075158,17.6603919167184L-7.6468479080773,17.6152793068552L-7.8048278732873,17.5416098732614L-7.9476158066369,17.4416304726266L-8.0708724899865,17.3183737892770L-8.1708537979699,17.1755858559274" />
</svg>
